<svg xmlns="http://www.w3.org/2000/svg" viewBox="0 0 100 100" width="1em" height="1em">
  <!-- Base Face -->
  <circle cx="50" cy="50" r="45" fill="#FCD34D" />
  
  <!-- Shadow/Depth under base -->
  <path d="M50 95 C 74.85 95 95 74.85 95 50 C 95 72 75 90 50 90 C 25 90 5 72 5 50 C 5 74.85 25.15 95 50 95 Z" fill="#F59E0B" opacity="0.3" />
  
  <!-- Eyes -->
  <circle cx="33" cy="42" r="6" fill="#1F2937" />
  <circle cx="67" cy="42" r="6" fill="#1F2937" />
  <!-- Eye Highlights -->
  <circle cx="31" cy="40" r="2" fill="#FFFFFF" />
  <circle cx="65" cy="40" r="2" fill="#FFFFFF" />

  <!-- Angry Eyebrows -->
  <path d="M22,33 Q32,26 40,38" fill="none" stroke="#1F2937" stroke-width="4" stroke-linecap="round" />
  <path d="M78,33 Q68,26 60,38" fill="none" stroke="#1F2937" stroke-width="4" stroke-linecap="round" />

  <!-- Censor Bar -->
  <rect x="20" y="55" width="60" height="25" fill="#1F2937" rx="3" />

  <!-- Censor Text -->
  <text x="50" y="74" fill="#FFFFFF" font-family="-apple-system, BlinkMacSystemFont, 'Segoe UI', Roboto, Helvetica, Arial, sans-serif" font-size="20" font-weight="900" text-anchor="middle" letter-spacing="1">!#*?</text>
</svg>
